# xmcd
#
# Track frame offsets:
#  150
#  13933
#  36500
#  60691
#  81101
#  101254
#  126299
#  140856
#  158641
#  173548
#  187030
#  204612
#  237615
#  255188
#  291328
#  310867
#  331990
#
# Disc length: 4557 seconds
#
# Revision: 0
# Processed by: cddbd v1.4PL0 Copyright (c) Steve Scherf et al.
# Submitted via: AltoMP3_Maker 3.0
#
DISCID=f611cb11
DTITLE=Eric Clapton - The Very Best Of DISK 1
DYEAR=1900
DGENRE=
TTITLE0=I Look Away
TTITLE1=Bell Bottom Blues
TTITLE2=My Father's Eyes
TTITLE3=Tears In Heaven
TTITLE4=Layla (Unblugged version)
TTITLE5=Running On Faith
TTITLE6=Hard Times
TTITLE7=Before You Accuse Me
TTITLE8=Watch Out For Lucy
TTITLE9=Promices
TTITLE10=Change The World
TTITLE11=River Of Tears
TTITLE12=Lay Down Sally
TTITLE13=Double Trouple
TTITLE14=Knockin' On Heavens Door
TTITLE15=Born In Time
TTITLE16=Behind The Sun
EXTD=
EXTT0=
EXTT1=
EXTT2=
EXTT3=
EXTT4=
EXTT5=
EXTT6=
EXTT7=
EXTT8=
EXTT9=
EXTT10=
EXTT11=
EXTT12=
EXTT13=
EXTT14=
EXTT15=
EXTT16=
PLAYORDER=
